<?xml version="1.0" standalone="no"?>
<!DOCTYPE svg PUBLIC "-//W3C//DTD SVG 20010904//EN"
 "http://www.w3.org/TR/2001/REC-SVG-20010904/DTD/svg10.dtd">
<svg version="1.0" xmlns="http://www.w3.org/2000/svg"
 width="700.000000pt" height="700.000000pt" viewBox="0 0 700.000000 700.000000"
 preserveAspectRatio="xMidYMid meet">
<metadata>
Created by potrace 1.14, written by Peter Selinger 2001-2017
</metadata>
<g transform="translate(0.000000,700.000000) scale(0.100000,-0.100000)"
fill="#000000" stroke="none">
<path d="M3337 6228 c-150 -38 -260 -132 -363 -308 -193 -330 -389 -693 -449
-833 -26 -60 -37 -74 -88 -107 -73 -49 -227 -125 -377 -185 -63 -25 -124 -50
-135 -55 -29 -13 -338 -128 -415 -155 -36 -12 -92 -35 -125 -49 -358 -161
-511 -316 -451 -459 40 -96 330 -284 651 -422 61 -26 124 -54 141 -61 54 -24
277 -94 297 -94 21 0 21 2 -6 -141 -7 -43 -12 -123 -11 -186 4 -160 -18 -239
-87 -318 -30 -33 -57 -51 -204 -130 -38 -21 -95 -55 -125 -75 -58 -40 -150
-127 -150 -143 0 -5 -8 -21 -19 -35 -10 -15 -22 -40 -26 -57 -5 -16 -10 -37
-13 -45 -3 -8 -6 -118 -6 -245 -1 -224 -2 -231 -25 -272 -22 -39 -97 -103
-120 -103 -14 0 -41 -41 -41 -62 0 -9 6 -23 13 -30 8 -8 13 -34 13 -65 -1 -64
25 -95 118 -142 34 -17 75 -44 91 -61 28 -29 28 -31 16 -82 -6 -29 -22 -75
-35 -103 -13 -27 -32 -76 -42 -107 -14 -47 -15 -60 -4 -72 18 -22 29 -20 101
18 73 39 102 39 176 6 33 -16 53 -32 60 -50 23 -61 93 -36 206 72 63 60 78 70
118 75 90 11 148 -27 226 -151 48 -76 67 -97 100 -115 31 -16 35 -14 18 12 -8
13 -18 43 -21 68 -5 36 -3 47 14 63 44 39 179 22 309 -40 105 -50 142 -61 183
-57 60 5 95 22 135 63 22 22 47 40 56 40 42 0 185 -120 276 -234 l31 -38 16
29 c21 41 85 103 122 119 42 18 83 11 159 -27 46 -22 72 -30 90 -25 15 4 99
42 188 86 200 97 271 122 365 126 60 2 80 -1 110 -18 134 -77 121 -73 225 -75
53 -1 97 -1 97 0 0 2 -9 20 -20 41 -21 43 -15 67 21 87 28 15 121 18 177 6 54
-11 149 -51 172 -72 44 -40 276 -104 309 -85 11 6 15 34 16 116 2 97 6 120 37
204 22 61 40 96 50 98 9 2 53 -18 97 -44 94 -54 116 -54 107 4 -16 106 -18
150 -7 157 7 4 35 9 64 12 29 3 60 9 69 14 15 8 16 12 2 45 -8 20 -13 43 -9
52 3 8 0 19 -7 23 -9 6 -9 11 1 23 25 30 9 69 -43 103 -26 17 -61 44 -77 59
-52 50 -56 81 -48 394 6 262 -79 379 -399 546 -109 57 -166 108 -201 184 -24
51 -26 65 -27 210 -1 157 -5 203 -28 304 l-13 55 48 10 c65 14 269 83 377 127
246 101 492 243 629 362 76 66 82 170 17 252 -101 125 -286 230 -634 358 -451
167 -698 273 -832 357 -48 30 -61 45 -85 98 -43 96 -158 318 -238 462 -32 57
-102 181 -135 240 -13 22 -28 49 -34 60 -75 134 -121 200 -176 255 -108 109
-216 151 -395 154 -66 1 -123 -5 -168 -16z"/>
</g>
</svg>
